<svg xmlns="http://www.w3.org/2000/svg" viewBox="0 0 500 400" width="500" height="400" role="img" aria-label="Pagamento de 50 por cento de entrada via Pix">
  <defs>
    <linearGradient id="bg2" x1="0" y1="0" x2="1" y2="1">
      <stop offset="0%" stop-color="#F1F5F9"/>
      <stop offset="100%" stop-color="#E2E8F0"/>
    </linearGradient>
  </defs>

  <rect width="500" height="400" fill="url(#bg2)"/>
  <circle cx="430" cy="70" r="80" fill="#10B981" opacity="0.08"/>
  <circle cx="60" cy="340" r="76" fill="#F59E0B" opacity="0.09"/>

  <!-- Telemóvel com QR -->
  <g transform="translate(178 46)">
    <rect x="8" y="10" width="150" height="300" rx="26" fill="#0B132B" opacity="0.1"/>
    <rect width="150" height="300" rx="26" fill="#0B132B"/>
    <rect x="10" y="10" width="130" height="280" rx="18" fill="#FFFFFF"/>
    <rect x="56" y="18" width="38" height="6" rx="3" fill="#0B132B" opacity="0.25"/>

    <!-- QR code -->
    <g transform="translate(31 46)">
      <rect width="88" height="88" rx="8" fill="#F8FAFC" stroke="#E2E8F0" stroke-width="2"/>
      <g fill="#0B132B">
        <rect x="10" y="10" width="22" height="22" rx="4"/>
        <rect x="56" y="10" width="22" height="22" rx="4"/>
        <rect x="10" y="56" width="22" height="22" rx="4"/>
      </g>
      <g fill="#F8FAFC">
        <rect x="16" y="16" width="10" height="10" rx="2"/>
        <rect x="62" y="16" width="10" height="10" rx="2"/>
        <rect x="16" y="62" width="10" height="10" rx="2"/>
      </g>
      <g fill="#0B132B">
        <rect x="40" y="40" width="7" height="7"/>
        <rect x="52" y="40" width="7" height="7"/>
        <rect x="64" y="52" width="7" height="7"/>
        <rect x="40" y="52" width="7" height="7"/>
        <rect x="52" y="64" width="7" height="7"/>
        <rect x="64" y="64" width="7" height="7"/>
        <rect x="40" y="70" width="7" height="7"/>
        <rect x="70" y="40" width="7" height="7"/>
      </g>
    </g>

    <rect x="31" y="150" width="88" height="8" rx="4" fill="#0B132B" opacity="0.75"/>
    <rect x="45" y="166" width="60" height="7" rx="3.5" fill="#94A3B8"/>

    <!-- Botão pagar -->
    <rect x="31" y="192" width="88" height="30" rx="15" fill="#10B981"/>
    <rect x="52" y="203" width="46" height="8" rx="4" fill="#FFFFFF" opacity="0.9"/>

    <rect x="31" y="238" width="88" height="6" rx="3" fill="#E2E8F0"/>
    <rect x="31" y="252" width="60" height="6" rx="3" fill="#E2E8F0"/>
  </g>

  <!-- Medalha 50% -->
  <g transform="translate(56 96)">
    <circle cx="52" cy="52" r="52" fill="#F59E0B"/>
    <circle cx="52" cy="52" r="40" fill="none" stroke="#FFFFFF" stroke-width="3" opacity="0.55"/>
    <text x="52" y="63" text-anchor="middle" font-family="'Plus Jakarta Sans', Segoe UI, Arial, sans-serif" font-size="30" font-weight="800" fill="#0B132B">50%</text>
    <rect x="8" y="118" width="88" height="9" rx="4.5" fill="#0B132B" opacity="0.55"/>
    <rect x="20" y="136" width="64" height="7" rx="3.5" fill="#0B132B" opacity="0.25"/>
  </g>

  <!-- Grupo VIP WhatsApp -->
  <g transform="translate(346 208)">
    <rect width="112" height="112" rx="24" fill="#FFFFFF" stroke="#E2E8F0" stroke-width="2"/>
    <circle cx="56" cy="48" r="26" fill="#25D366"/>
    <path d="M46 40c0 12 8 20 20 20l4-6-7-4-3 3c-4-2-7-5-8-9l3-3-4-7-5 6z" fill="#FFFFFF"/>
    <rect x="24" y="84" width="64" height="8" rx="4" fill="#0B132B" opacity="0.6"/>
  </g>
</svg>
